<svg xmlns="http://www.w3.org/2000/svg" width="620" height="270" viewBox="0 0 620 270">
  <g id="home-bg" transform="translate(-620 -532)">
    <rect id="長方形_148" data-name="長方形 148" width="620" height="270" transform="translate(620 532)" fill="none"/>
    <path id="パス_73" data-name="パス 73" d="M869.114,586.585,796.4,623.142,905.671,659.3Z" fill="#f1f1f1"/>
    <path id="パス_74" data-name="パス 74" d="M1140.926,653.411l-8.7,80.919,89.619-72.219Z" fill="#f1f1f1"/>
    <path id="パス_75" data-name="パス 75" d="M654.959,552l-8.442,3.087-1.355,2.919,12.716-4.651Z" fill="#f1f1f1"/>
    <path id="パス_76" data-name="パス 76" d="M662.7,555.594l-19.777,7.233-1.355,2.919,24.051-8.8Z" fill="#f1f1f1"/>
    <path id="パス_77" data-name="パス 77" d="M670.439,559.189l-31.111,11.378-1.355,2.919,35.385-12.941Z" fill="#f1f1f1"/>
    <path id="パス_78" data-name="パス 78" d="M678.179,562.784l-42.446,15.524-1.355,2.919L681.1,564.14Z" fill="#f1f1f1"/>
    <path id="パス_79" data-name="パス 79" d="M685.919,566.378l-53.78,19.669-1.355,2.919,58.055-21.232Z" fill="#f1f1f1"/>
    <path id="パス_80" data-name="パス 80" d="M693.659,569.973l-65.115,23.815-1.355,2.919,69.389-25.378Z" fill="#f1f1f1"/>
    <path id="パス_81" data-name="パス 81" d="M701.4,573.568l-76.45,27.96-1.355,2.919,80.724-29.523Z" fill="#f1f1f1"/>
    <path id="パス_82" data-name="パス 82" d="M709.139,577.162l-87.784,32.105L620,612.186l92.059-33.668Z" fill="#f1f1f1"/>
    <path id="パス_83" data-name="パス 83" d="M821.113,759.391l5.416,8.837,3.608.866-8.158-13.312Z" fill="#f1f1f1"/>
    <path id="パス_84" data-name="パス 84" d="M823.41,749.822l12.688,20.7,3.608.866-15.43-25.178Z" fill="#f1f1f1"/>
    <path id="パス_85" data-name="パス 85" d="M825.707,740.253l19.958,32.57,3.608.866-22.7-37.044Z" fill="#f1f1f1"/>
    <path id="パス_86" data-name="パス 86" d="M828,730.685l27.23,44.434,3.608.866-29.973-48.908Z" fill="#f1f1f1"/>
    <path id="パス_87" data-name="パス 87" d="M830.3,721.116l34.5,56.3,3.608.866-37.245-60.771Z" fill="#f1f1f1"/>
    <path id="パス_88" data-name="パス 88" d="M832.6,711.547l41.774,68.166,3.608.866-44.517-72.641Z" fill="#f1f1f1"/>
    <path id="パス_89" data-name="パス 89" d="M834.9,701.978l49.046,80.031,3.608.866-51.783-84.5Z" fill="#f1f1f1"/>
    <path id="パス_90" data-name="パス 90" d="M837.192,692.406l56.318,91.9,3.608.866L838.057,688.8Z" fill="#f1f1f1"/>
    <path id="パス_91" data-name="パス 91" d="M1113.957,539.921l-9.12-3.533-3.2,1.415,13.738,5.321Z" fill="#f1f1f1"/>
    <path id="パス_92" data-name="パス 92" d="M1117.708,548.415l-21.366-8.276-3.2,1.415,25.984,10.064Z" fill="#f1f1f1"/>
    <path id="パス_93" data-name="パス 93" d="M1121.459,556.91l-33.612-13.019-3.2,1.415,38.229,14.808Z" fill="#f1f1f1"/>
    <path id="パス_94" data-name="パス 94" d="M1125.21,565.4l-45.857-17.762-3.2,1.414,50.475,19.551Z" fill="#f1f1f1"/>
    <path id="パス_95" data-name="パス 95" d="M1128.962,573.9l-58.1-22.505-3.2,1.414,62.72,24.294Z" fill="#f1f1f1"/>
    <path id="パス_96" data-name="パス 96" d="M1132.713,582.393l-70.348-27.249-3.2,1.414,74.966,29.037Z" fill="#f1f1f1"/>
    <path id="パス_97" data-name="パス 97" d="M1136.464,590.887,1053.87,558.9l-3.2,1.414,87.211,33.78Z" fill="#f1f1f1"/>
    <path id="パス_98" data-name="パス 98" d="M1140.215,599.382l-94.839-36.735-3.2,1.414,99.457,38.523Z" fill="#f1f1f1"/>
  </g>
</svg>
