<svg xmlns="http://www.w3.org/2000/svg" width="130" height="130" viewBox="0 0 130 130">
  <g id="home-titleshape" transform="translate(566 -874)">
    <path id="パス_71" data-name="パス 71" d="M-436,939c0,5.484-8.094,9.831-9.446,14.889-1.4,5.233,3.4,13.036.745,17.618-2.689,4.647-11.869,4.379-15.641,8.151s-3.5,12.952-8.151,15.641c-4.582,2.651-12.385-2.143-17.618-.745-5.057,1.352-9.405,9.446-14.889,9.446s-9.831-8.094-14.889-9.446c-5.233-1.4-13.036,3.4-17.618.745-4.647-2.689-4.379-11.869-8.151-15.641s-12.952-3.5-15.641-8.151c-2.651-4.582,2.143-12.385.745-17.618C-557.906,948.831-566,944.484-566,939s8.094-9.831,9.446-14.889c1.4-5.233-3.4-13.036-.745-17.618,2.689-4.648,11.869-4.379,15.641-8.151s3.5-12.952,8.151-15.641c4.582-2.651,12.385,2.143,17.618.745C-510.831,882.094-506.484,874-501,874s9.831,8.094,14.889,9.446c5.233,1.4,13.036-3.4,17.618-.745,4.648,2.689,4.379,11.869,8.151,15.641s12.952,3.5,15.641,8.151c2.651,4.582-2.143,12.385-.745,17.618C-444.094,929.169-436,933.516-436,939Z"/>
  </g>
</svg>
